<svg width="401" height="560" viewBox="0 0 401 560" fill="none" xmlns="http://www.w3.org/2000/svg">
<path fill-rule="evenodd" clip-rule="evenodd" d="M293.169 187.865C290.459 186.869 287.87 185.439 285.495 183.475C267.563 168.654 274.717 146.922 285.185 135.731C295.653 124.54 361.106 130.282 331.275 182.467C331.147 182.54 331.016 182.613 330.882 182.687C327.636 193.196 330.716 202.318 334.412 213.262C335.919 217.726 337.529 222.493 338.854 227.781L306.107 224.922C296.894 212.994 293.26 201.073 293.169 187.865Z" fill="#F5B9AB"/>
<path d="M285.495 183.475L285.049 184.015L285.049 184.015L285.495 183.475ZM293.169 187.865L293.41 187.208C293.684 187.309 293.867 187.568 293.869 187.86L293.169 187.865ZM285.185 135.731L284.674 135.253L284.674 135.253L285.185 135.731ZM331.275 182.467L331.882 182.814C331.82 182.923 331.73 183.013 331.621 183.075L331.275 182.467ZM330.882 182.687L330.214 182.481C330.267 182.308 330.385 182.163 330.543 182.075L330.882 182.687ZM334.412 213.262L333.749 213.486L334.412 213.262ZM338.854 227.781L339.532 227.611C339.587 227.831 339.533 228.063 339.386 228.235C339.239 228.407 339.018 228.498 338.793 228.478L338.854 227.781ZM306.107 224.922L306.046 225.619C305.852 225.602 305.673 225.505 305.553 225.35L306.107 224.922ZM285.94 182.936C288.251 184.846 290.77 186.238 293.41 187.208L292.928 188.521C290.149 187.5 287.489 186.032 285.049 184.015L285.94 182.936ZM285.696 136.209C280.549 141.711 276.224 149.803 275.386 158.31C274.551 166.781 277.167 175.685 285.94 182.936L285.049 184.015C275.89 176.445 273.117 167.072 273.994 158.173C274.867 149.311 279.353 140.941 284.674 135.253L285.696 136.209ZM330.668 182.12C338.074 169.163 339.494 159.216 337.456 151.759C335.421 144.313 329.893 139.188 323.044 135.966C316.191 132.741 308.073 131.456 301.019 131.673C297.495 131.781 294.258 132.265 291.594 133.056C288.915 133.852 286.883 134.94 285.696 136.209L284.674 135.253C286.104 133.724 288.408 132.543 291.195 131.715C293.998 130.883 297.358 130.386 300.976 130.275C308.207 130.052 316.551 131.365 323.64 134.7C330.735 138.038 336.631 143.434 338.805 151.391C340.977 159.338 339.391 169.678 331.882 182.814L330.668 182.12ZM330.543 182.075C330.675 182.003 330.803 181.931 330.93 181.859L331.621 183.075C331.49 183.149 331.357 183.224 331.221 183.299L330.543 182.075ZM333.749 213.486C330.065 202.576 326.891 193.239 330.214 182.481L331.55 182.894C328.381 193.154 331.367 202.06 335.075 213.038L333.749 213.486ZM338.175 227.951C336.858 222.694 335.257 217.952 333.749 213.486L335.075 213.038C336.581 217.5 338.2 222.292 339.532 227.611L338.175 227.951ZM306.168 224.226L338.914 227.084L338.793 228.478L306.046 225.619L306.168 224.226ZM293.869 187.86C293.959 200.921 297.545 212.692 306.661 224.495L305.553 225.35C296.243 213.296 292.562 201.225 292.47 187.87L293.869 187.86Z" fill="black"/>
<path d="M336.535 150.719C341.783 157.675 336.594 174.521 332.608 178.685C365.963 161.283 343.855 120.233 333.598 127.456C331.618 112.393 313.619 106.761 301.661 119.25C270.619 94.8816 269.782 135.418 280.697 141.786C291.611 148.153 304.598 142.519 311.456 145.825C318.315 149.131 322.877 168.478 324.875 157.823C326.873 147.168 329.975 142.024 336.535 150.719Z" fill="#61432D" stroke="black" stroke-width="1.39887"/>
<path d="M358.072 427.989L315.023 424.865L325.383 308.989C325.383 308.989 275.436 190.63 318.312 190.63C378.893 190.63 399.151 283.966 398.396 308.989C397.64 334.012 358.072 427.989 358.072 427.989Z" fill="#FDE6AC" stroke="black" stroke-width="1.39887"/>
<path d="M314.697 429.877L315.299 424.645L358.651 426.387L357.695 434.795C356.15 448.389 342.534 457.155 329.519 452.935C319.72 449.757 313.52 440.111 314.697 429.877Z" fill="#F5B9AB" stroke="black" stroke-width="1.39887" stroke-linejoin="round"/>
<path d="M252.211 344.602C224.208 317.451 259.008 227.516 264.684 216.813C272.947 201.561 297.75 175.028 330.852 190.912C380.909 214.932 358.035 333.78 349.037 374.978L252.211 344.602Z" fill="#FDE6AC" stroke="black" stroke-width="1.39887"/>
<path d="M34.1542 438.857L29.6416 398.065C29.6416 398.065 134.411 364.111 220.758 351.371L339.316 361.612C357.125 403.696 348.342 481.038 216.256 445.481L34.1542 438.857Z" fill="black" stroke="black" stroke-width="1.39887"/>
<path fill-rule="evenodd" clip-rule="evenodd" d="M161.109 367.389L142.494 425.285L103.438 423.377L85.617 315.371C82.6647 297.479 96.4687 281.21 114.603 281.21L138.767 281.21L140.437 278.601L148.548 281.21C155.031 281.218 160.901 283.281 165.659 286.714L329.786 339.51C355.168 347.675 366.585 377.144 353.327 400.278L328.219 444.092C315.186 466.835 284.714 472.179 264.72 455.228L161.109 367.389Z" fill="black"/>
<path d="M161.109 367.389L161.433 367.008L160.862 366.524L160.633 367.236L161.109 367.389ZM142.494 425.285L142.47 425.784L142.853 425.803L142.97 425.438L142.494 425.285ZM103.438 423.377L102.944 423.458L103.01 423.856L103.413 423.876L103.438 423.377ZM85.617 315.371L86.1103 315.29L86.1103 315.29L85.617 315.371ZM114.603 281.21L114.603 281.71H114.603L114.603 281.21ZM138.767 281.21L138.767 281.71L139.041 281.71L139.188 281.48L138.767 281.21ZM140.436 278.601L140.59 278.125L140.223 278.007L140.015 278.332L140.436 278.601ZM148.548 281.21L148.395 281.686L148.469 281.71L148.548 281.71L148.548 281.21ZM165.659 286.714L165.366 287.12L165.43 287.166L165.505 287.19L165.659 286.714ZM329.786 339.51L329.633 339.986L329.633 339.986L329.786 339.51ZM353.327 400.278L352.893 400.03L352.893 400.03L353.327 400.278ZM328.219 444.092L327.785 443.843L327.785 443.843L328.219 444.092ZM264.72 455.228L264.396 455.609L264.396 455.609L264.72 455.228ZM160.633 367.236L142.018 425.131L142.97 425.438L161.585 367.542L160.633 367.236ZM142.518 424.785L103.462 422.877L103.413 423.876L142.47 425.784L142.518 424.785ZM103.931 423.295L86.1103 315.29L85.1237 315.453L102.944 423.458L103.931 423.295ZM86.1103 315.29C83.2083 297.702 96.7774 281.71 114.603 281.71L114.603 280.71C96.1601 280.71 82.1212 297.255 85.1237 315.453L86.1103 315.29ZM114.603 281.71L138.767 281.71L138.767 280.71L114.603 280.71L114.603 281.71ZM139.188 281.48L140.858 278.87L140.015 278.332L138.346 280.941L139.188 281.48ZM140.283 279.077L148.395 281.686L148.701 280.734L140.59 278.125L140.283 279.077ZM148.548 281.71C154.922 281.718 160.69 283.746 165.366 287.12L165.951 286.309C161.111 282.816 155.14 280.718 148.549 280.71L148.548 281.71ZM165.505 287.19L329.633 339.986L329.939 339.034L165.812 286.238L165.505 287.19ZM329.633 339.986C354.712 348.053 365.993 377.172 352.893 400.03L353.761 400.527C367.176 377.117 355.624 347.296 329.939 339.034L329.633 339.986ZM352.893 400.03L327.785 443.843L328.653 444.341L353.761 400.527L352.893 400.03ZM327.785 443.843C314.907 466.315 284.799 471.595 265.043 454.846L264.396 455.609C284.629 472.762 315.464 467.355 328.653 444.341L327.785 443.843ZM265.043 454.846L161.433 367.008L160.786 367.77L264.396 455.609L265.043 454.846Z" fill="black"/>
<path d="M102.988 422.936L142.926 425.298L146.022 458.825C146.022 458.825 110.986 457.809 89.7322 451.161L104.018 444.14L102.988 422.936Z" fill="#FDE6AC" stroke="black" stroke-width="1.39887" stroke-linejoin="round"/>
<rect width="97.773" height="18.3324" rx="2.00878" transform="matrix(0.258819 0.965926 0.965926 -0.258819 89.5281 178.538)" fill="#807878" stroke="black" stroke-width="1.39887"/>
<rect width="97.773" height="18.3324" rx="2.00878" transform="matrix(-1 0 0 1 208.723 263.418)" fill="#807878" stroke="black" stroke-width="1.39887"/>
<path d="M29.9524 398.095L34.8922 438.877L5.08087 447.105C5.08087 447.105 -0.535778 411.966 2.18596 389.521L12.0313 402.456L29.9524 398.095Z" fill="#FDE6AC" stroke="black" stroke-width="1.39887" stroke-linejoin="round"/>
<path d="M177.994 292.615L200.366 255.338L268.96 292.689C265.815 249.582 295.402 187.546 326.471 191.325C380.977 197.953 340.821 332.301 305.116 355.983C269.41 379.664 177.994 292.615 177.994 292.615Z" fill="#FDE6AC"/>
<path d="M348.174 273.777C339.738 309.124 321.933 344.829 305.116 355.983C269.41 379.664 177.994 292.615 177.994 292.615L200.366 255.338L268.96 292.689L292.274 234.2" stroke="black" stroke-width="1.39887"/>
<path d="M196.293 252.51L200.578 255.573L178.038 292.645L171.148 287.734C160.007 279.792 158.94 263.633 168.941 254.296C176.471 247.266 187.913 246.519 196.293 252.51Z" fill="#F5B9AB" stroke="black" stroke-width="1.39887" stroke-linejoin="round"/>
<path d="M248.891 92.4655L248.922 104.08C248.905 104.269 248.822 104.449 248.684 104.591C248.546 104.733 248.361 104.831 248.157 104.869L229.093 109.101L229.081 109.101C228.978 109.131 228.868 109.14 228.76 109.128C228.652 109.115 228.548 109.082 228.456 109.03C228.364 108.977 228.285 108.908 228.225 108.825C228.165 108.742 228.126 108.649 228.109 108.551L227.934 95.7596C227.941 95.5604 228.025 95.3697 228.171 95.2209C228.317 95.0721 228.516 94.9746 228.732 94.9456L248.017 91.8897C248.117 91.8642 248.222 91.8595 248.324 91.8761C248.426 91.8926 248.523 91.93 248.607 91.9853C248.691 92.0406 248.76 92.1126 248.809 92.1957C248.858 92.2788 248.886 92.3711 248.891 92.4655V92.4655ZM248.409 92.3129C248.229 92.1748 249.349 92.0906 228.8 95.3093C228.679 95.3244 228.568 95.3767 228.484 95.4574C228.4 95.5382 228.349 95.6425 228.34 95.7531L228.515 108.545C228.516 108.644 228.709 108.807 228.998 108.742L248.061 104.511C248.176 104.491 248.282 104.439 248.363 104.362C248.445 104.285 248.498 104.187 248.516 104.082C248.487 91.665 248.524 92.4008 248.409 92.3129Z" fill="#861111"/>
<path d="M325.231 92.0005C325.97 92.0144 326.674 92.3178 327.192 92.8454C327.71 93.373 328 94.0828 328 94.822C328 95.5612 327.71 96.271 327.192 96.7986C326.674 97.3262 325.97 97.6296 325.231 97.6435H299.426C299.051 97.6506 298.678 97.5828 298.33 97.4442C297.981 97.3055 297.664 97.0988 297.396 96.8361C297.129 96.5734 296.916 96.26 296.771 95.9142C296.626 95.5684 296.551 95.1971 296.551 94.822C296.551 94.4469 296.626 94.0756 296.771 93.7298C296.916 93.384 297.129 93.0706 297.396 92.8079C297.664 92.5452 297.981 92.3384 298.33 92.1998C298.678 92.0612 299.051 91.9934 299.426 92.0005H325.231ZM296.98 94.8225C296.981 95.4708 297.239 96.0922 297.698 96.5506C298.156 97.0089 298.778 97.2667 299.426 97.2675H325.231C325.871 97.2546 326.481 96.9912 326.929 96.534C327.377 96.0768 327.628 95.4622 327.628 94.822C327.628 94.1818 327.377 93.5672 326.929 93.11C326.481 92.6528 325.871 92.3894 325.231 92.3765H299.426C298.778 92.3773 298.156 92.6353 297.697 93.0938C297.239 93.5523 296.981 94.174 296.98 94.8225Z" fill="#861111"/>
<path d="M159.871 84.0005H182.125C182.5 83.9934 182.873 84.0612 183.221 84.1998C183.57 84.3384 183.887 84.5452 184.155 84.8079C184.422 85.0706 184.635 85.384 184.78 85.7298C184.925 86.0756 185 86.4469 185 86.822C185 87.1971 184.925 87.5684 184.78 87.9142C184.635 88.26 184.422 88.5734 184.155 88.8361C183.887 89.0988 183.57 89.3055 183.221 89.4442C182.873 89.5828 182.5 89.6506 182.125 89.6435H159.871C159.132 89.6296 158.428 89.3262 157.91 88.7986C157.392 88.271 157.102 87.5612 157.102 86.822C157.102 86.0828 157.392 85.373 157.91 84.8454C158.428 84.3178 159.132 84.0144 159.871 84.0005V84.0005ZM157.426 86.8215C157.426 87.4699 157.684 88.0916 158.143 88.5501C158.601 89.0087 159.222 89.2667 159.871 89.2675H182.125C182.45 89.2741 182.774 89.2157 183.076 89.0957C183.378 88.9758 183.654 88.7967 183.886 88.569C184.119 88.3412 184.303 88.0694 184.429 87.7695C184.555 87.4695 184.62 87.1474 184.62 86.822C184.62 86.4966 184.555 86.1745 184.429 85.8745C184.303 85.5746 184.119 85.3028 183.886 85.075C183.654 84.8473 183.378 84.6682 183.076 84.5483C182.774 84.4283 182.45 84.3699 182.125 84.3765H159.871C159.223 84.3773 158.601 84.6351 158.143 85.0935C157.685 85.5519 157.427 86.1733 157.426 86.8215V86.8215Z" fill="#861111"/>
<path d="M182.178 80.644H167.066C166.318 80.644 165.6 80.3467 165.071 79.8175C164.541 79.2882 164.244 78.5704 164.244 77.822C164.244 77.0736 164.541 76.3558 165.071 75.8265C165.6 75.2973 166.318 75 167.066 75H182.178C182.926 75 183.644 75.2973 184.173 75.8265C184.703 76.3558 185 77.0736 185 77.822C185 78.5704 184.703 79.2882 184.173 79.8175C183.644 80.3467 182.926 80.644 182.178 80.644V80.644Z" fill="#861111"/>
<g filter="url(#filter0_d_8_26)">
<path d="M137.23 61.2686H154.883V23.1014C154.889 16.9756 157.11 11.1027 161.057 6.77156C165.004 2.44046 170.356 0.0051062 175.938 0H302.062C307.642 0.00692975 312.992 2.44295 316.938 6.77359C320.884 11.1042 323.103 16.9758 323.109 23.1001V61.2672H340.764C340.827 61.2672 340.887 61.2945 340.931 61.3431C340.975 61.3916 341 61.4575 341 61.5262V105.432C341 105.501 340.975 105.566 340.931 105.615C340.886 105.663 340.826 105.691 340.764 105.691H323.109V111.677C323.109 111.745 323.084 111.811 323.04 111.86C322.996 111.908 322.936 111.936 322.873 111.936C322.81 111.936 322.75 111.908 322.706 111.86C322.662 111.811 322.637 111.745 322.637 111.677V105.691H286.038C286.007 105.691 285.976 105.685 285.948 105.672C285.919 105.659 285.893 105.639 285.871 105.615C285.849 105.591 285.832 105.563 285.82 105.531C285.808 105.5 285.802 105.466 285.802 105.432V61.5276C285.802 61.4936 285.808 61.4599 285.82 61.4285C285.832 61.397 285.849 61.3685 285.871 61.3444C285.893 61.3204 285.919 61.3013 285.948 61.2883C285.976 61.2753 286.007 61.2686 286.038 61.2686H313.164V51.5463H252.534C252.471 51.5463 252.411 51.519 252.367 51.4704C252.322 51.4218 252.298 51.3559 252.298 51.2872V41.9645L250.354 45.8557C250.322 45.9107 250.272 45.9502 250.214 45.9663C250.156 45.9824 250.095 45.9739 250.042 45.9425C249.99 45.9111 249.951 45.8591 249.932 45.797C249.913 45.7348 249.916 45.6672 249.941 45.6076L252.088 41.3045H239.395L241.705 45.4767C241.738 45.5354 241.749 45.6062 241.735 45.6735C241.72 45.7408 241.682 45.7991 241.629 45.8357C241.576 45.8722 241.511 45.884 241.45 45.8683C241.388 45.8527 241.335 45.811 241.302 45.7523L239.233 42.0086V61.2686H266.36C266.391 61.2686 266.422 61.2753 266.451 61.2883C266.479 61.3013 266.505 61.3204 266.527 61.3444C266.549 61.3685 266.567 61.397 266.579 61.4285C266.59 61.4599 266.597 61.4936 266.597 61.5276V105.431C266.597 105.5 266.572 105.566 266.527 105.614C266.483 105.663 266.423 105.691 266.36 105.691H253.277L253.241 109.117L269.134 120.667C270.31 121.469 269.636 123.338 268.15 123.797C241.367 132.083 243.028 131.627 242.433 131.627C241.942 131.641 241.46 131.477 241.061 131.161C223.178 116.16 223.897 116.629 223.921 116.481L223.886 116.457V105.691H211.633C211.571 105.691 211.51 105.663 211.466 105.614C211.422 105.566 211.397 105.5 211.397 105.431V61.5276C211.397 61.4936 211.403 61.4599 211.415 61.4285C211.427 61.397 211.444 61.3685 211.466 61.3444C211.488 61.3204 211.514 61.3013 211.543 61.2883C211.572 61.2753 211.602 61.2686 211.633 61.2686H238.761V42.0169L236.844 45.8557C236.811 45.9107 236.761 45.9502 236.703 45.9663C236.646 45.9824 236.584 45.9739 236.532 45.9425C236.48 45.9111 236.44 45.8591 236.421 45.797C236.403 45.7348 236.406 45.6672 236.431 45.6076L238.578 41.3045H224.825L227.135 45.4767C227.168 45.5354 227.179 45.6062 227.165 45.6735C227.15 45.7408 227.112 45.7991 227.059 45.8357C227.005 45.8722 226.941 45.884 226.88 45.8683C226.818 45.8527 226.765 45.811 226.732 45.7523L224.736 42.1506V51.2941C224.736 51.3628 224.711 51.4287 224.666 51.4773C224.622 51.5259 224.562 51.5532 224.5 51.5532H164.829V61.2755H191.957C192.02 61.2755 192.08 61.3027 192.124 61.3513C192.168 61.3999 192.193 61.4658 192.193 61.5345V105.432C192.193 105.501 192.168 105.567 192.124 105.615C192.08 105.664 192.02 105.691 191.957 105.691H155.355V111.9C155.362 117.888 157.533 123.629 161.391 127.862C165.25 132.096 170.482 134.476 175.938 134.481H275.006C275.066 134.485 275.122 134.515 275.162 134.563C275.203 134.611 275.226 134.674 275.226 134.74C275.226 134.806 275.203 134.869 275.162 134.918C275.122 134.966 275.066 134.995 275.006 135H175.938C170.358 134.993 165.008 132.557 161.062 128.226C157.116 123.896 154.896 118.024 154.89 111.9V105.691H137.236C137.173 105.691 137.113 105.664 137.069 105.615C137.025 105.567 137 105.501 137 105.432V61.5276C137 61.4601 137.024 61.3952 137.067 61.3468C137.11 61.2984 137.168 61.2704 137.23 61.2686V61.2686ZM251.033 86.1006L226.471 90.2618C225.919 90.3349 225.406 90.6118 225.017 91.047C224.627 91.4822 224.384 92.0498 224.328 92.6566V116.138L252.766 109.055L253.002 87.5694C253.015 86.4658 252.052 85.9229 251.033 86.1006ZM243.124 131.004L268.022 123.303C269.075 122.977 269.701 121.65 268.877 121.099L252.954 109.524L224.685 116.579L241.35 130.744C241.609 130.931 241.904 131.051 242.212 131.096C242.52 131.14 242.833 131.107 243.127 131L243.124 131.004ZM211.862 105.176H223.824V92.6593C223.882 91.9243 224.169 91.2335 224.637 90.7035C225.104 90.1735 225.724 89.8365 226.392 89.7492L250.954 85.588C251.241 85.4982 251.542 85.4808 251.835 85.537C252.129 85.5933 252.407 85.7218 252.648 85.9129C252.89 86.1039 253.089 86.3526 253.23 86.6403C253.372 86.9279 253.452 87.247 253.465 87.5736L253.277 105.172H266.124V61.7866H211.869L211.862 105.176ZM302.062 0.519457H175.938C170.483 0.526021 165.253 2.9071 161.395 7.14033C157.538 11.3736 155.368 17.1132 155.362 23.1001V27.7628H211.397V9.4908C211.397 9.4221 211.422 9.35621 211.466 9.30763C211.511 9.25905 211.571 9.23176 211.633 9.23176H266.36C266.423 9.23176 266.483 9.25905 266.527 9.30763C266.572 9.35621 266.597 9.4221 266.597 9.4908V27.7628H322.637V23.1001C322.631 17.1133 320.461 11.3737 316.604 7.14041C312.747 2.90715 307.517 0.526022 302.062 0.519457V0.519457ZM266.124 40.7865V9.75259H211.869V40.7865H266.124ZM286.274 105.172H340.527V61.7866H286.274V105.172ZM313.4 51.0213C313.463 51.0213 313.524 51.0488 313.568 51.0976C313.613 51.1464 313.638 51.2127 313.638 51.2817V61.2631H322.637V28.2809H266.597V41.0441C266.597 41.1128 266.572 41.1787 266.527 41.2273C266.483 41.2759 266.423 41.3032 266.36 41.3032H252.9L255.21 45.4754C255.244 45.534 255.254 45.6048 255.24 45.6721C255.226 45.7394 255.188 45.7978 255.134 45.8343C255.081 45.8708 255.017 45.8826 254.955 45.867C254.894 45.8513 254.841 45.8096 254.807 45.7509L252.775 42.0582V51.0268L313.4 51.0213ZM164.593 51.0213H224.264V41.8709L222.274 45.857C222.241 45.9121 222.191 45.9516 222.133 45.9677C222.076 45.9838 222.014 45.9753 221.962 45.9439C221.91 45.9125 221.87 45.8605 221.851 45.7983C221.832 45.7362 221.836 45.6686 221.861 45.609L224.007 41.3059H211.633C211.602 41.3059 211.572 41.2992 211.543 41.2862C211.514 41.2732 211.488 41.2541 211.466 41.23C211.444 41.206 211.427 41.1774 211.415 41.146C211.403 41.1146 211.397 41.0809 211.397 41.0469V28.2809H155.355V61.2686H164.357V51.2872C164.357 51.2184 164.382 51.1524 164.426 51.1036C164.471 51.0548 164.531 51.0272 164.593 51.0268V51.0213ZM137.466 105.172H191.721V61.7866H137.466V105.172Z" fill="#861111"/>
</g>
<path d="M191.686 47.0875L188.422 43.8435L185.177 47.1065C185.142 47.1419 185.094 47.1619 185.044 47.1621C184.994 47.1622 184.946 47.1426 184.911 47.1075C184.876 47.0723 184.856 47.0246 184.855 46.9747C184.855 46.9248 184.875 46.8769 184.91 46.8415L188.155 43.5775L184.891 40.3325C184.859 40.2967 184.841 40.25 184.843 40.2019C184.844 40.1537 184.863 40.1079 184.897 40.0738C184.931 40.0397 184.977 40.0199 185.025 40.0185C185.073 40.0172 185.12 40.0343 185.156 40.0665L188.42 43.3105L191.666 40.0485C191.702 40.0162 191.748 39.9989 191.797 40.0001C191.845 40.0012 191.891 40.0208 191.925 40.0548C191.959 40.0888 191.979 40.1346 191.98 40.1827C191.981 40.2308 191.964 40.2776 191.932 40.3135L188.688 43.5785L191.952 46.8225C191.984 46.8583 192.001 46.9051 192 46.9532C191.999 47.0014 191.979 47.0471 191.945 47.0811C191.911 47.1151 191.865 47.1347 191.817 47.1359C191.768 47.137 191.722 47.1197 191.686 47.0875V47.0875Z" fill="#861111"/>
<path d="M289.969 47.4208C289.951 47.4465 289.926 47.4671 289.898 47.4809C289.87 47.4946 289.838 47.5011 289.807 47.4996C289.775 47.4981 289.745 47.4887 289.718 47.4723C289.691 47.456 289.668 47.4331 289.652 47.4058L286.146 41.2818C286.121 41.2385 286.115 41.187 286.128 41.1388C286.141 41.0906 286.173 41.0496 286.216 41.0248C286.26 41 286.311 40.9935 286.359 41.0066C286.407 41.0197 286.448 41.0515 286.473 41.0948L289.834 46.9639L292.663 42.9798C292.693 42.9414 292.736 42.916 292.784 42.9089C292.833 42.9017 292.882 42.9135 292.921 42.9417C292.961 42.9699 292.988 43.0123 292.997 43.0601C293.006 43.1078 292.996 43.1572 292.969 43.1978L289.969 47.4208Z" fill="#861111"/>
<path d="M308.689 81.0005H324.231C324.97 81.0144 325.674 81.3178 326.192 81.8454C326.71 82.373 327 83.0828 327 83.822C327 84.5612 326.71 85.271 326.192 85.7986C325.674 86.3262 324.97 86.6296 324.231 86.6435H308.689C308.314 86.6506 307.941 86.5828 307.593 86.4442C307.244 86.3056 306.927 86.0988 306.659 85.8361C306.392 85.5734 306.179 85.26 306.034 84.9142C305.889 84.5684 305.814 84.1971 305.814 83.822C305.814 83.4469 305.889 83.0756 306.034 82.7298C306.179 82.384 306.392 82.0706 306.659 81.8079C306.927 81.5452 307.244 81.3384 307.593 81.1998C307.941 81.0612 308.314 80.9934 308.689 81.0005V81.0005Z" fill="#861111"/>
<path d="M251.125 75.0005C251.5 74.9934 251.873 75.0612 252.221 75.1998C252.57 75.3384 252.887 75.5452 253.155 75.8079C253.422 76.0706 253.635 76.384 253.78 76.7298C253.925 77.0756 254 77.4469 254 77.822C254 78.1971 253.925 78.5684 253.78 78.9142C253.635 79.26 253.422 79.5734 253.155 79.8361C252.887 80.0988 252.57 80.3055 252.221 80.4442C251.873 80.5828 251.5 80.6506 251.125 80.6435H225.32C224.945 80.6506 224.572 80.5828 224.224 80.4442C223.875 80.3055 223.558 80.0988 223.29 79.8361C223.022 79.5734 222.81 79.26 222.665 78.9142C222.52 78.5684 222.445 78.1971 222.445 77.822C222.445 77.4469 222.52 77.0756 222.665 76.7298C222.81 76.384 223.022 76.0706 223.29 75.8079C223.558 75.5452 223.875 75.3384 224.224 75.1998C224.572 75.0612 224.945 74.9934 225.32 75.0005H251.125Z" fill="#861111"/>
<path d="M257.387 27.4313L248.832 23.3583C248.787 23.3368 248.753 23.2983 248.736 23.2512C248.719 23.2042 248.722 23.1524 248.743 23.1073C248.765 23.0622 248.803 23.0275 248.85 23.0108C248.897 22.9941 248.949 22.9968 248.994 23.0183L257.894 27.2573C257.926 27.2727 257.953 27.2968 257.971 27.3267C257.99 27.3565 258 27.3911 258 27.4263C258 27.4616 257.99 27.4961 257.971 27.526C257.953 27.5558 257.926 27.5799 257.894 27.5953C248.537 32.2743 248.901 32.1213 248.801 32.1213C248.759 32.1207 248.718 32.1061 248.686 32.0797C248.653 32.0533 248.63 32.0167 248.62 31.9756C248.61 31.9346 248.615 31.8915 248.632 31.8532C248.65 31.8149 248.68 31.7836 248.717 31.7643L257.387 27.4313Z" fill="#861111"/>
<path d="M236.735 15.1141L242.987 31.4511C243.005 31.4976 243.004 31.5494 242.984 31.595C242.964 31.6405 242.926 31.6762 242.879 31.6941C242.833 31.712 242.781 31.7107 242.736 31.6904C242.69 31.6702 242.654 31.6326 242.636 31.5861L236.384 15.2481C236.369 15.2021 236.372 15.1518 236.393 15.1079C236.413 15.0639 236.45 15.0297 236.496 15.0124C236.541 14.995 236.591 14.996 236.636 15.0149C236.681 15.0339 236.716 15.0694 236.735 15.1141Z" fill="#861111"/>
<path d="M221.732 27.2016L230.732 23.0176C230.778 22.9965 230.829 22.9943 230.876 23.0113C230.923 23.0284 230.961 23.0634 230.982 23.1086C231.003 23.1538 231.006 23.2056 230.989 23.2525C230.972 23.2994 230.937 23.3375 230.891 23.3586L222.235 27.3806L230.789 31.7646C230.832 31.7886 230.863 31.8279 230.877 31.8745C230.891 31.921 230.886 31.971 230.864 32.0142C230.841 32.0573 230.803 32.0902 230.758 32.1059C230.712 32.1217 230.661 32.1191 230.617 32.0986C220.948 27.1616 221.617 27.5396 221.617 27.3686C221.619 27.3327 221.63 27.298 221.651 27.2684C221.671 27.2388 221.699 27.2157 221.732 27.2016V27.2016Z" fill="#861111"/>
<defs>
<filter id="filter0_d_8_26" x="133" y="0" width="212" height="143" filterUnits="userSpaceOnUse" color-interpolation-filters="sRGB">
<feFlood flood-opacity="0" result="BackgroundImageFix"/>
<feColorMatrix in="SourceAlpha" type="matrix" values="0 0 0 0 0 0 0 0 0 0 0 0 0 0 0 0 0 0 127 0" result="hardAlpha"/>
<feOffset dy="4"/>
<feGaussianBlur stdDeviation="2"/>
<feComposite in2="hardAlpha" operator="out"/>
<feColorMatrix type="matrix" values="0 0 0 0 0 0 0 0 0 0 0 0 0 0 0 0 0 0 0.25 0"/>
<feBlend mode="normal" in2="BackgroundImageFix" result="effect1_dropShadow_8_26"/>
<feBlend mode="normal" in="SourceGraphic" in2="effect1_dropShadow_8_26" result="shape"/>
</filter>
</defs>
</svg>
