<svg width="118" height="104" viewBox="0 0 118 104" fill="none" xmlns="http://www.w3.org/2000/svg">
<path d="M116.5 52C116.5 79.718 90.94 102.5 59 102.5C27.06 102.5 1.5 79.718 1.5 52C1.5 24.282 27.06 1.5 59 1.5C90.94 1.5 116.5 24.282 116.5 52Z" stroke="#861111" stroke-width="3"/>
<path d="M34.5852 42.7244L34.9972 37.9091H58.6193L58.2216 42.7244H49.2727L47.2699 67H41.517L43.5341 42.7244H34.5852ZM70.5618 67H60.3487L62.7635 37.9091H72.9624C75.8696 37.9091 78.3269 38.5009 80.3345 39.6847C82.3516 40.8589 83.8383 42.5445 84.7947 44.7415C85.7607 46.929 86.1158 49.5426 85.8601 52.5824C85.6139 55.5937 84.8421 58.1742 83.5447 60.3239C82.2474 62.4735 80.4955 64.1259 78.2891 65.2812C76.0921 66.4271 73.5163 67 70.5618 67ZM66.5703 62H70.5902C72.4936 62 74.1224 61.6496 75.4766 60.9489C76.8307 60.2481 77.8961 59.1828 78.6726 57.7528C79.4586 56.3134 79.9463 54.4858 80.1357 52.2699C80.3156 50.1108 80.1404 48.3447 79.6101 46.9716C79.0893 45.589 78.2228 44.5663 77.0107 43.9034C75.7985 43.2405 74.2502 42.9091 72.3658 42.9091H68.1612L66.5703 62Z" fill="#861111"/>
</svg>
